<?xml version="1.0" encoding="UTF-8"?>
<!DOCTYPE svg PUBLIC "-//W3C//DTD SVG 1.1//EN" "http://www.w3.org/Graphics/SVG/1.1/DTD/svg11.dtd">
<svg xmlns="http://www.w3.org/2000/svg" version="1.1" width="1200px" height="1200px" style="shape-rendering:geometricPrecision; text-rendering:geometricPrecision; image-rendering:optimizeQuality; fill-rule:evenodd; clip-rule:evenodd" xmlns:xlink="http://www.w3.org/1999/xlink">
<g><path style="opacity:1" fill="#5dabbc" d="M 603.5,142.5 C 675.273,181.889 746.94,221.555 818.5,261.5C 819.5,318.829 819.833,376.163 819.5,433.5C 809.833,439.669 799.833,445.336 789.5,450.5C 763.834,435.697 738.001,421.03 712,406.5C 711.831,422.672 711.331,438.672 710.5,454.5C 711.448,413.241 711.781,373.908 711.5,336.5C 711.649,335.448 711.483,334.448 711,333.5C 693.317,305.454 675.151,277.788 656.5,250.5C 654.466,251.559 652.466,252.559 650.5,253.5C 634.728,259.885 619.062,266.552 603.5,273.5C 603.5,229.833 603.5,186.167 603.5,142.5 Z"/></g>
<g><path style="opacity:1" fill="#549aaa" d="M 603.5,142.5 C 603.5,186.167 603.5,229.833 603.5,273.5C 569.572,292.29 535.905,311.29 502.5,330.5C 500.78,331.864 498.78,332.864 496.5,333.5C 495.5,357.824 495.167,382.158 495.5,406.5C 478.806,415.512 462.14,424.512 445.5,433.5C 438.226,422.541 430.892,411.541 423.5,400.5C 419.55,403.264 415.217,405.264 410.5,406.5C 402.766,409.301 395.1,412.301 387.5,415.5C 387.333,364.166 387.5,312.832 388,261.5C 459.971,221.193 531.805,181.526 603.5,142.5 Z"/></g>
<g><path style="opacity:1" fill="#a6bbb8" d="M 711.5,336.5 C 710.778,336.082 710.278,335.416 710,334.5C 674.357,354.401 638.857,374.401 603.5,394.5C 585.514,366.536 567.514,338.536 549.5,310.5C 583.329,291.753 616.995,272.753 650.5,253.5C 652.466,252.559 654.466,251.559 656.5,250.5C 675.151,277.788 693.317,305.454 711,333.5C 711.483,334.448 711.649,335.448 711.5,336.5 Z"/></g>
<g><path style="opacity:0.996" fill="#668891" d="M 650.5,253.5 C 616.995,272.753 583.329,291.753 549.5,310.5C 533.938,317.448 518.272,324.115 502.5,330.5C 535.905,311.29 569.572,292.29 603.5,273.5C 619.062,266.552 634.728,259.885 650.5,253.5 Z"/></g>
<g><path style="opacity:1" fill="#b5e3fb" d="M 549.5,310.5 C 567.514,338.536 585.514,366.536 603.5,394.5C 603.5,434.167 603.5,473.833 603.5,513.5C 567.967,494.715 532.3,475.215 496.5,455C 495.509,438.911 495.175,422.744 495.5,406.5C 495.167,382.158 495.5,357.824 496.5,333.5C 498.78,332.864 500.78,331.864 502.5,330.5C 518.272,324.115 533.938,317.448 549.5,310.5 Z"/></g>
<g><path style="opacity:1" fill="#fefefe" d="M 711.5,336.5 C 711.781,373.908 711.448,413.241 710.5,454.5C 675.105,474.329 639.438,493.996 603.5,513.5C 603.5,473.833 603.5,434.167 603.5,394.5C 638.857,374.401 674.357,354.401 710,334.5C 710.278,335.416 710.778,336.082 711.5,336.5 Z"/></g>
<g><path style="opacity:1" fill="#24527a" d="M 956.5,478.5 C 920.962,498.435 885.296,518.101 849.5,537.5C 830.918,510.005 812.585,482.338 794.5,454.5C 826.771,436.361 859.104,418.194 891.5,400C 891.272,399.601 890.938,399.435 890.5,399.5C 894.408,397.546 898.408,395.546 902.5,393.5C 921.271,421.382 939.271,449.716 956.5,478.5 Z"/></g>
<g><path style="opacity:1" fill="#5dabbc" d="M 445.5,433.5 C 456.167,450.5 466.833,467.5 477.5,484.5C 441.483,504.195 405.483,523.862 369.5,543.5C 351.5,515.833 333.5,488.167 315.5,460.5C 316.469,459.691 317.302,458.691 318,457.5C 321.942,456.685 325.609,454.685 329,451.5C 329.333,451.833 329.667,452.167 330,452.5C 357.136,436.965 383.97,421.632 410.5,406.5C 415.217,405.264 419.55,403.264 423.5,400.5C 430.892,411.541 438.226,422.541 445.5,433.5 Z"/></g>
<g><path style="opacity:0.992" fill="#1b3e5a" d="M 890.5,399.5 C 890.938,399.435 891.272,399.601 891.5,400C 859.104,418.194 826.771,436.361 794.5,454.5C 779.838,460.832 765.172,467.165 750.5,473.5C 762.861,465.779 775.861,458.112 789.5,450.5C 799.833,445.336 809.833,439.669 819.5,433.5C 842.192,420.322 865.858,408.989 890.5,399.5 Z"/></g>
<g><path style="opacity:1" fill="#24527a" d="M 495.5,406.5 C 495.175,422.744 495.509,438.911 496.5,455C 532.3,475.215 567.967,494.715 603.5,513.5C 639.438,493.996 675.105,474.329 710.5,454.5C 711.331,438.672 711.831,422.672 712,406.5C 738.001,421.03 763.834,435.697 789.5,450.5C 775.861,458.112 762.861,465.779 750.5,473.5C 747.769,475.198 744.769,476.531 741.5,477.5C 740.501,488.146 740.168,498.813 740.5,509.5C 694.984,535.091 649.318,560.425 603.5,585.5C 561.483,562.492 519.483,539.492 477.5,516.5C 477.5,505.833 477.5,495.167 477.5,484.5C 466.833,467.5 456.167,450.5 445.5,433.5C 462.14,424.512 478.806,415.512 495.5,406.5 Z"/></g>
<g><path style="opacity:0.996" fill="#4c7385" d="M 410.5,406.5 C 383.97,421.632 357.136,436.965 330,452.5C 329.667,452.167 329.333,451.833 329,451.5C 325.609,454.685 321.942,456.685 318,457.5C 317.302,458.691 316.469,459.691 315.5,460.5C 299.276,467.779 282.943,474.779 266.5,481.5C 306.062,458.217 346.395,436.217 387.5,415.5C 395.1,412.301 402.766,409.301 410.5,406.5 Z"/></g>
<g><path style="opacity:1" fill="#b5e3fb" d="M 794.5,454.5 C 812.585,482.338 830.918,510.005 849.5,537.5C 849.5,537.833 849.5,538.167 849.5,538.5C 848.501,577.996 848.168,617.663 848.5,657.5C 812.596,638.263 776.93,618.596 741.5,598.5C 741.83,580.659 741.497,562.992 740.5,545.5C 740.905,533.346 740.905,521.346 740.5,509.5C 740.168,498.813 740.501,488.146 741.5,477.5C 744.769,476.531 747.769,475.198 750.5,473.5C 765.172,467.165 779.838,460.832 794.5,454.5 Z"/></g>
<g><path style="opacity:1" fill="#b5e3fb" d="M 315.5,460.5 C 333.5,488.167 351.5,515.833 369.5,543.5C 369.5,583.5 369.5,623.5 369.5,663.5C 333.663,644.083 297.997,624.416 262.5,604.5C 261.501,593.854 261.168,583.187 261.5,572.5C 261.167,542.826 261.5,513.159 262.5,483.5C 263.622,482.37 264.956,481.703 266.5,481.5C 282.943,474.779 299.276,467.779 315.5,460.5 Z"/></g>
<g><path style="opacity:1" fill="#fefefe" d="M 956.5,478.5 C 956.5,511.833 956.5,545.167 956.5,578.5C 956.83,585.2 956.497,591.866 955.5,598.5C 920.702,618.069 885.702,637.402 850.5,656.5C 849.501,617.337 849.168,578.004 849.5,538.5C 849.5,538.167 849.5,537.833 849.5,537.5C 885.296,518.101 920.962,498.435 956.5,478.5 Z"/></g>
<g><path style="opacity:1" fill="#fefefe" d="M 477.5,484.5 C 477.5,495.167 477.5,505.833 477.5,516.5C 477.5,528.5 477.5,540.5 477.5,552.5C 477.833,569.846 477.5,587.179 476.5,604.5C 441.13,624.359 405.464,644.026 369.5,663.5C 369.5,623.5 369.5,583.5 369.5,543.5C 405.483,523.862 441.483,504.195 477.5,484.5 Z"/></g>
<g><path style="opacity:1" fill="#a5bbb8" d="M 740.5,509.5 C 740.905,521.346 740.905,533.346 740.5,545.5C 739.833,545.5 739.5,545.833 739.5,546.5C 694.15,571.528 648.816,596.528 603.5,621.5C 561.67,599.231 519.67,576.231 477.5,552.5C 477.5,540.5 477.5,528.5 477.5,516.5C 519.483,539.492 561.483,562.492 603.5,585.5C 649.318,560.425 694.984,535.091 740.5,509.5 Z"/></g>
<g><path style="opacity:0.996" fill="#d6e2e8" d="M 849.5,538.5 C 849.168,578.004 849.501,617.337 850.5,656.5C 850.158,657.338 849.492,657.672 848.5,657.5C 848.168,617.663 848.501,577.996 849.5,538.5 Z"/></g>
<g><path style="opacity:1" fill="#24527a" d="M 739.5,546.5 C 740.167,563.833 740.833,581.167 741.5,598.5C 776.93,618.596 812.596,638.263 848.5,657.5C 849.492,657.672 850.158,657.338 850.5,656.5C 885.702,637.402 920.702,618.069 955.5,598.5C 956.497,591.866 956.83,585.2 956.5,578.5C 982.634,592.734 1008.63,607.234 1034.5,622C 962.747,662.293 890.914,702.46 819,742.5C 747.22,702.361 675.387,662.361 603.5,622.5C 603.5,622.167 603.5,621.833 603.5,621.5C 648.816,596.528 694.15,571.528 739.5,546.5 Z"/></g>
<g><path style="opacity:1" fill="#24527a" d="M 477.5,552.5 C 519.67,576.231 561.67,599.231 603.5,621.5C 603.5,621.833 603.5,622.167 603.5,622.5C 531.613,662.361 459.78,702.361 388,742.5C 316.054,702.446 244.221,662.279 172.5,622C 201.93,604.954 231.597,588.454 261.5,572.5C 261.168,583.187 261.501,593.854 262.5,604.5C 297.997,624.416 333.663,644.083 369.5,663.5C 405.464,644.026 441.13,624.359 476.5,604.5C 477.5,587.179 477.833,569.846 477.5,552.5 Z"/></g>
<g><path style="opacity:1" fill="#66a6b4" d="M 739.5,546.5 C 739.5,545.833 739.833,545.5 740.5,545.5C 741.497,562.992 741.83,580.659 741.5,598.5C 740.833,581.167 740.167,563.833 739.5,546.5 Z"/></g>
</svg>
